<svg width="24" height="24" viewBox="0 0 24 24" fill="none" xmlns="http://www.w3.org/2000/svg">
    <path d="M21.2 2.8C21.5 2.5 21.2 2 20.8 2.2L3.3 9.7C3 9.8 2.9 10.2 3.2 10.4L8.6 13.8C8.8 13.9 9.1 13.9 9.3 13.7L19.4 4.6C19.5 4.5 19.7 4.5 19.8 4.7C19.9 4.8 19.8 5 19.7 5.1L10.6 15.2C10.4 15.4 10.4 15.7 10.5 15.9L13.9 21.3C14.1 21.6 14.5 21.5 14.6 21.2L21.8 3.2C21.9 3 21.5 2.9 21.2 2.8Z"     stroke="#4FBDA0"     stroke-width="2"     stroke-linecap="round"     stroke-linejoin="round"    fill="none"    style="stroke-dasharray: 1,0.5"/>
</svg> 